<?xml version="1.0" encoding="UTF-8" standalone="no"?>
<!-- Created with Inkscape (http://www.inkscape.org/) -->

<svg
   xmlns:dc="http://purl.org/dc/elements/1.1/"
   xmlns:cc="http://creativecommons.org/ns#"
   xmlns:rdf="http://www.w3.org/1999/02/22-rdf-syntax-ns#"
   xmlns:svg="http://www.w3.org/2000/svg"
   xmlns="http://www.w3.org/2000/svg"
   xmlns:sodipodi="http://sodipodi.sourceforge.net/DTD/sodipodi-0.dtd"
   xmlns:inkscape="http://www.inkscape.org/namespaces/inkscape"
   width="192"
   height="192"
   id="svg2"
   version="1.1"
   inkscape:version="0.48.5 r10040"
   sodipodi:docname="dingroll.svg"
   inkscape:export-filename="C:\Users\Stuart\Documents\GitHub\dingroll-logos\dingroll.png"
   inkscape:export-xdpi="7.5"
   inkscape:export-ydpi="7.5">
  <defs
     id="defs4" />
  <sodipodi:namedview
     id="base"
     pagecolor="#ffffff"
     bordercolor="#666666"
     borderopacity="1.0"
     inkscape:pageopacity="0.0"
     inkscape:pageshadow="2"
     inkscape:zoom="4.0104167"
     inkscape:cx="96"
     inkscape:cy="96"
     inkscape:document-units="px"
     inkscape:current-layer="svg2"
     showgrid="false"
     inkscape:showpageshadow="false"
     showborder="true"
     inkscape:window-width="1680"
     inkscape:window-height="987"
     inkscape:window-x="-8"
     inkscape:window-y="-8"
     inkscape:window-maximized="1">
    <inkscape:grid
       type="xygrid"
       id="grid2985"
       empspacing="4"
       visible="true"
       enabled="false"
       snapvisiblegridlinesonly="true"
       spacingx="12px"
       spacingy="12px" />
    <inkscape:grid
       type="xygrid"
       id="grid3010"
       empspacing="4"
       visible="true"
       enabled="true"
       snapvisiblegridlinesonly="true"
       spacingx="6px"
       spacingy="6px" />
  </sodipodi:namedview>
  <metadata
     id="metadata7">
    <rdf:RDF>
      <cc:Work
         rdf:about="">
        <dc:format>image/svg+xml</dc:format>
        <dc:type
           rdf:resource="http://purl.org/dc/dcmitype/StillImage" />
        <dc:title></dc:title>
      </cc:Work>
    </rdf:RDF>
  </metadata>
  <g
     inkscape:groupmode="layer"
     id="layer2"
     inkscape:label="square"
     style="display:none">
    <path
       style="fill:#552200;fill-opacity:1;stroke:none"
       d="m 0,0 c 0,0 0,36 0,72 0,36 36,72 72,72 l 48,0 c 36,0 72,-36 72,-72 0,-36 0,-72 0,-72 z"
       id="path2993-7"
       inkscape:connector-curvature="0"
       sodipodi:nodetypes="csscscc" />
    <path
       sodipodi:nodetypes="csccscc"
       inkscape:connector-curvature="0"
       id="path3008-4"
       d="m 0,72 c 0,0 0,12 0,48 0,36.00002 0,72 0,72 l 192,0 c 0,0 0,-35.99998 0,-72 0,-36 0,-48 0,-48 z"
       style="fill:#2b1100;fill-opacity:1;stroke:none" />
  </g>
  <g
     inkscape:label="Layer 1"
     inkscape:groupmode="layer"
     id="layer1"
     transform="translate(0,-860.36218)">
    <path
       sodipodi:nodetypes="csscscc"
       inkscape:connector-curvature="0"
       id="path3008"
       d="m 0,932.36218 c 0,0 0,12 0,48 0,36.00002 36,72.00002 72,72.00002 l 48,0 c 36,0 72,-36 72,-72.00002 0,-36 0,-48 0,-48 z"
       style="fill:#2b1100;fill-opacity:1;stroke:none" />
    <path
       style="fill:#552200;stroke:none"
       d="m 96,60 c -6,0 -30,0 -30,12 0,6 24,6 30,6 6,0 24,0 24,-6 0,-6 -12,-12 -24,-12 z"
       id="path3807"
       inkscape:connector-curvature="0"
       transform="translate(0,860.36218)"
       sodipodi:nodetypes="sssss" />
    <path
       style="fill:#552200;stroke:none;stroke-width:1px;stroke-linecap:butt;stroke-linejoin:miter;stroke-opacity:1;fill-opacity:1"
       d="M 72,0 C 36,0 0,36 0,72 c 0,36 36,72 72,72 l 48,0 c 36,0 72,-36 72,-72 C 192,36 156,0 120,0 z"
       id="path2993"
       inkscape:connector-curvature="0"
       transform="translate(0,860.36218)"
       sodipodi:nodetypes="ssscscs" />
    <path
       id="path2990"
       style="fill:#ffffff;stroke:none"
       d="M 72,48 C 60,48 48,60 48,72 48,84 60,96 72,96 l 48,0 c 24,0 48,-6 48,-24 0,-24 -24,-48 -48,-48 l -48,0 c -24,0 -48,24 -48,48 0,24 24,48 48,48 l 60,0 c 18,0 36,-12 36,-30 0,6 -18,18 -36,18 l -60,0 C 54,108 36,90 36,72 36,54 54,36 72,36 l 48,0 c 18,0 36,18 36,36 0,12 -18,12 -18,12 6,-6 6,-12 6,-12 0,-12 -12,-24 -24,-24 z m 0,36 C 66,84 60,78 60,72 60,66 66,60 72,60 l 48,0 c 6,0 12,6 12,12 0,6 -6,12 -12,12 z"
       inkscape:connector-curvature="0"
       sodipodi:nodetypes="sccsccscccccccscccccssssssss"
       transform="translate(0,860.36218)" />
  </g>
</svg>
