<?xml version="1.0" encoding="UTF-8" standalone="no"?>
<!-- Created with Inkscape (http://www.inkscape.org/) -->

<svg
   xmlns:dc="http://purl.org/dc/elements/1.1/"
   xmlns:cc="http://creativecommons.org/ns#"
   xmlns:rdf="http://www.w3.org/1999/02/22-rdf-syntax-ns#"
   xmlns:svg="http://www.w3.org/2000/svg"
   xmlns="http://www.w3.org/2000/svg"
   xmlns:sodipodi="http://sodipodi.sourceforge.net/DTD/sodipodi-0.dtd"
   xmlns:inkscape="http://www.inkscape.org/namespaces/inkscape"
   width="192"
   height="192"
   id="svg2"
   version="1.1"
   inkscape:version="0.48.5 r10040"
   sodipodi:docname="dingroll.svg"
   inkscape:export-filename="C:\Users\Stuart\Documents\GitHub\dingroll-logos\dingroll.png"
   inkscape:export-xdpi="90"
   inkscape:export-ydpi="90">
  <defs
     id="defs4" />
  <sodipodi:namedview
     id="base"
     pagecolor="#ffffff"
     bordercolor="#666666"
     borderopacity="1.0"
     inkscape:pageopacity="0.0"
     inkscape:pageshadow="2"
     inkscape:zoom="4.0104167"
     inkscape:cx="96"
     inkscape:cy="96"
     inkscape:document-units="px"
     inkscape:current-layer="layer1"
     showgrid="false"
     inkscape:showpageshadow="false"
     showborder="true"
     inkscape:window-width="1680"
     inkscape:window-height="987"
     inkscape:window-x="-8"
     inkscape:window-y="-8"
     inkscape:window-maximized="1">
    <inkscape:grid
       type="xygrid"
       id="grid2985"
       empspacing="2"
       visible="true"
       enabled="true"
       snapvisiblegridlinesonly="true"
       spacingx="12px"
       spacingy="12px"
       color="#c0c0c0"
       opacity="0.50196078"
       empcolor="#c0c0c0"
       empopacity="0.50196078" />
    <inkscape:grid
       type="xygrid"
       id="grid3010"
       empspacing="4"
       visible="true"
       enabled="true"
       snapvisiblegridlinesonly="true"
       spacingx="6px"
       spacingy="6px"
       dotted="false"
       color="#0101ff"
       opacity="0.0627451"
       empcolor="#0101ff"
       empopacity="0.1254902" />
    <inkscape:grid
       type="xygrid"
       id="grid3054"
       empspacing="4"
       visible="true"
       enabled="true"
       snapvisiblegridlinesonly="true"
       spacingx="3px"
       spacingy="3px"
       dotted="true"
       color="#0101ff"
       opacity="0.03137255"
       empcolor="#0101ff"
       empopacity="0.0627451" />
  </sodipodi:namedview>
  <metadata
     id="metadata7">
    <rdf:RDF>
      <cc:Work
         rdf:about="">
        <dc:format>image/svg+xml</dc:format>
        <dc:type
           rdf:resource="http://purl.org/dc/dcmitype/StillImage" />
        <dc:title></dc:title>
      </cc:Work>
    </rdf:RDF>
  </metadata>
  <g
     inkscape:groupmode="layer"
     id="layer2"
     inkscape:label="square"
     style="display:inline">
    <path
       style="fill:#551800;fill-opacity:1;stroke:none"
       d="m 0,0 c 0,0 0,36 0,72 0,36 36,72 72,72 l 48,0 c 36,0 72,-36 72,-72 0,-36 0,-72 0,-72 z"
       id="path2993-7"
       inkscape:connector-curvature="0"
       sodipodi:nodetypes="csscscc" />
    <path
       sodipodi:nodetypes="csccscc"
       inkscape:connector-curvature="0"
       id="path3008-4"
       d="m 0,72 c 0,0 0,12 0,48 0,36.00002 0,72 0,72 l 192,0 c 0,0 0,-35.99998 0,-72 0,-36 0,-48 0,-48 z"
       style="fill:#2b0c00;fill-opacity:1;stroke:none" />
  </g>
  <g
     inkscape:label="Layer 1"
     inkscape:groupmode="layer"
     id="layer1"
     transform="translate(0,-860.36218)">
    <path
       sodipodi:nodetypes="ccsccc"
       inkscape:connector-curvature="0"
       id="path3008"
       d="m 0,932.36218 0,48 c 0,36.00002 48,72.00002 96,72.00002 48,0 96,-36 96,-72.00002 l 0,-48 z"
       style="fill:#2b0c00;fill-opacity:1;stroke:none" />
    <path
       style="fill:#552200;stroke:none"
       d="m 96,60 c -6,0 -30,0 -30,12 0,6 24,6 30,6 6,0 24,0 24,-6 0,-6 -12,-12 -24,-12 z"
       id="path3807"
       inkscape:connector-curvature="0"
       transform="translate(0,860.36218)"
       sodipodi:nodetypes="sssss" />
    <path
       style="fill:#551800;fill-opacity:1;stroke:none"
       d="m 0,72 c 0,36 48,72 96,72 48,0 96,-36 96,-72 C 192,36 144,0 96,0 48,0 0,36 0,72 z"
       id="path2993"
       inkscape:connector-curvature="0"
       transform="translate(0,860.36218)"
       sodipodi:nodetypes="sssss" />
    <path
       style="fill:none;stroke:#ffffff;stroke-width:12;stroke-linecap:butt;stroke-linejoin:miter;stroke-miterlimit:4;stroke-opacity:1;stroke-dasharray:none"
       d="M 138,72 C 138,84 117,90 96,90 75,90 54,84 54,72 54,60 75,54 96,54 c 21,0 42,9 42,18 0,9 24,17.130296 24,0 0,-21 -33,-42 -66,-42 -33,0 -66,18 -66,42 0,24 33,42 66,42 33,0 48,-12 48,-12"
       id="path2992"
       inkscape:connector-curvature="0"
       sodipodi:nodetypes="cssssssssc"
       transform="translate(0,860.36218)" />
  </g>
</svg>
